<svg width="236" height="25" viewBox="0 0 236 25" fill="none" xmlns="http://www.w3.org/2000/svg">
<path d="M30.1641 1.72734L24.4969 24H19.1191L16.1027 12.3C16.0418 12.0766 15.9605 11.7363 15.859 11.2793C15.7574 10.8223 15.6508 10.3246 15.5391 9.78633C15.4273 9.23789 15.3258 8.725 15.2344 8.24766C15.1531 7.76016 15.0973 7.37422 15.0668 7.08984C15.0363 7.37422 14.9754 7.75508 14.884 8.23242C14.8027 8.70977 14.7063 9.21758 14.5945 9.75586C14.493 10.2941 14.3914 10.7969 14.2898 11.2641C14.1883 11.7312 14.107 12.0867 14.0461 12.3305L11.0449 24H5.68242L0 1.72734H4.64648L7.49531 13.8844C7.57656 14.25 7.66797 14.6867 7.76953 15.1945C7.88125 15.7023 7.98789 16.2355 8.08945 16.7941C8.20117 17.3426 8.29766 17.8758 8.37891 18.3937C8.47031 18.9016 8.53633 19.3434 8.57695 19.7191C8.62773 19.3332 8.69375 18.8863 8.775 18.3785C8.85625 17.8605 8.94258 17.3375 9.03398 16.8094C9.13555 16.2711 9.23711 15.7734 9.33867 15.3164C9.44023 14.8594 9.53164 14.4887 9.61289 14.2043L12.8578 1.72734H17.3215L20.5664 14.2043C20.6375 14.4785 20.7188 14.8492 20.8102 15.3164C20.9117 15.7734 21.0133 16.2711 21.1148 16.8094C21.2164 17.3477 21.3078 17.8758 21.3891 18.3937C21.4805 18.9016 21.5465 19.3434 21.5871 19.7191C21.6582 19.2113 21.7547 18.5969 21.8766 17.8758C22.0086 17.1445 22.1457 16.4184 22.2879 15.6973C22.4402 14.9762 22.5723 14.3719 22.684 13.8844L25.5176 1.72734H30.1641ZM37.56 6.96797V24H32.9136V6.96797H37.56ZM35.2444 0.295312C35.935 0.295312 36.5292 0.457812 37.0268 0.782812C37.5245 1.09766 37.7733 1.6918 37.7733 2.56523C37.7733 3.42852 37.5245 4.02773 37.0268 4.36289C36.5292 4.68789 35.935 4.85039 35.2444 4.85039C34.5436 4.85039 33.9444 4.68789 33.4468 4.36289C32.9593 4.02773 32.7155 3.42852 32.7155 2.56523C32.7155 1.6918 32.9593 1.09766 33.4468 0.782812C33.9444 0.457812 34.5436 0.295312 35.2444 0.295312ZM47.4088 24H42.7623V0.295312H47.4088V24ZM57.2575 24H52.611V0.295312H57.2575V24ZM69.4371 6.61758C71.7222 6.61758 73.4742 7.11523 74.6929 8.11055C75.9117 9.10586 76.521 10.6191 76.521 12.6504V24H73.2761L72.3773 21.6844H72.2554C71.7679 22.2937 71.2703 22.7914 70.7625 23.1773C70.2546 23.5633 69.6707 23.8477 69.0105 24.0305C68.3503 24.2133 67.548 24.3047 66.6035 24.3047C65.598 24.3047 64.6941 24.1117 63.8918 23.7258C63.0996 23.3398 62.475 22.7508 62.0179 21.9586C61.5609 21.1562 61.3324 20.1406 61.3324 18.9117C61.3324 17.1039 61.9671 15.7734 63.2367 14.9203C64.5062 14.057 66.4105 13.5797 68.9496 13.4883L71.905 13.3969V12.6504C71.905 11.7566 71.6714 11.1016 71.2043 10.6852C70.7371 10.2687 70.0871 10.0605 69.2543 10.0605C68.4316 10.0605 67.6242 10.1773 66.832 10.4109C66.0398 10.6445 65.2476 10.9391 64.4554 11.2945L62.9168 8.15625C63.8207 7.67891 64.8312 7.30312 65.9484 7.02891C67.0757 6.75469 68.2386 6.61758 69.4371 6.61758ZM71.905 16.1086L70.1074 16.1695C68.6043 16.2102 67.5582 16.4793 66.9691 16.977C66.3902 17.4746 66.1007 18.1297 66.1007 18.9422C66.1007 19.6531 66.3089 20.1609 66.7253 20.4656C67.1418 20.7602 67.6851 20.9074 68.3554 20.9074C69.3507 20.9074 70.1886 20.6129 70.8691 20.0238C71.5597 19.4348 71.905 18.5969 71.905 17.5102V16.1086ZM101.635 6.64805C103.564 6.64805 105.022 7.1457 106.007 8.14102C107.002 9.12617 107.5 10.7105 107.5 12.8941V24H102.838V14.052C102.838 12.8332 102.63 11.9141 102.214 11.2945C101.797 10.675 101.152 10.3652 100.279 10.3652C99.0498 10.3652 98.1764 10.807 97.6584 11.6906C97.1405 12.5641 96.8815 13.8184 96.8815 15.4535V24H92.235V14.052C92.235 13.2395 92.1436 12.559 91.9608 12.0105C91.778 11.4621 91.4987 11.0508 91.1229 10.7766C90.7471 10.5023 90.2647 10.3652 89.6756 10.3652C88.8123 10.3652 88.1319 10.5836 87.6342 11.0203C87.1467 11.4469 86.7963 12.0816 86.583 12.9246C86.3799 13.7574 86.2784 14.7781 86.2784 15.9867V24H81.6319V6.96797H85.1815L85.8061 9.14648H86.0651C86.4104 8.55742 86.842 8.08008 87.36 7.71445C87.8881 7.34883 88.467 7.07969 89.0967 6.90703C89.7264 6.73437 90.3662 6.64805 91.0162 6.64805C92.2655 6.64805 93.3217 6.85117 94.185 7.25742C95.0584 7.66367 95.7287 8.29336 96.1959 9.14648H96.6073C97.1151 8.27305 97.8311 7.63828 98.7553 7.24219C99.6897 6.84609 100.649 6.64805 101.635 6.64805ZM148.739 1.72734L143.072 24H137.694L134.677 12.3C134.616 12.0766 134.535 11.7363 134.434 11.2793C134.332 10.8223 134.225 10.3246 134.114 9.78633C134.002 9.23789 133.9 8.725 133.809 8.24766C133.728 7.76016 133.672 7.37422 133.641 7.08984C133.611 7.37422 133.55 7.75508 133.459 8.23242C133.377 8.70977 133.281 9.21758 133.169 9.75586C133.068 10.2941 132.966 10.7969 132.864 11.2641C132.763 11.7312 132.682 12.0867 132.621 12.3305L129.62 24H124.257L118.575 1.72734H123.221L126.07 13.8844C126.151 14.25 126.243 14.6867 126.344 15.1945C126.456 15.7023 126.563 16.2355 126.664 16.7941C126.776 17.3426 126.872 17.8758 126.954 18.3937C127.045 18.9016 127.111 19.3434 127.152 19.7191C127.202 19.3332 127.268 18.8863 127.35 18.3785C127.431 17.8605 127.517 17.3375 127.609 16.8094C127.71 16.2711 127.812 15.7734 127.913 15.3164C128.015 14.8594 128.106 14.4887 128.188 14.2043L131.432 1.72734H135.896L139.141 14.2043C139.212 14.4785 139.293 14.8492 139.385 15.3164C139.486 15.7734 139.588 16.2711 139.689 16.8094C139.791 17.3477 139.882 17.8758 139.964 18.3937C140.055 18.9016 140.121 19.3434 140.162 19.7191C140.233 19.2113 140.329 18.5969 140.451 17.8758C140.583 17.1445 140.72 16.4184 140.863 15.6973C141.015 14.9762 141.147 14.3719 141.259 13.8844L144.092 1.72734H148.739ZM156.135 6.96797V24H151.488V6.96797H156.135ZM153.819 0.295312C154.51 0.295312 155.104 0.457812 155.601 0.782812C156.099 1.09766 156.348 1.6918 156.348 2.56523C156.348 3.42852 156.099 4.02773 155.601 4.36289C155.104 4.68789 154.51 4.85039 153.819 4.85039C153.118 4.85039 152.519 4.68789 152.021 4.36289C151.534 4.02773 151.29 3.42852 151.29 2.56523C151.29 1.6918 151.534 1.09766 152.021 0.782812C152.519 0.457812 153.118 0.295312 153.819 0.295312ZM165.983 24H161.337V0.295312H165.983V24ZM175.832 24H171.186V0.295312H175.832V24ZM185.681 6.96797V24H181.034V6.96797H185.681ZM183.365 0.295312C184.056 0.295312 184.65 0.457812 185.148 0.782812C185.645 1.09766 185.894 1.6918 185.894 2.56523C185.894 3.42852 185.645 4.02773 185.148 4.36289C184.65 4.68789 184.056 4.85039 183.365 4.85039C182.664 4.85039 182.065 4.68789 181.568 4.36289C181.08 4.02773 180.836 3.42852 180.836 2.56523C180.836 1.6918 181.08 1.09766 181.568 0.782812C182.065 0.457812 182.664 0.295312 183.365 0.295312ZM197.86 6.61758C200.146 6.61758 201.898 7.11523 203.116 8.11055C204.335 9.10586 204.944 10.6191 204.944 12.6504V24H201.699L200.801 21.6844H200.679C200.191 22.2937 199.694 22.7914 199.186 23.1773C198.678 23.5633 198.094 23.8477 197.434 24.0305C196.774 24.2133 195.971 24.3047 195.027 24.3047C194.021 24.3047 193.117 24.1117 192.315 23.7258C191.523 23.3398 190.898 22.7508 190.441 21.9586C189.984 21.1562 189.756 20.1406 189.756 18.9117C189.756 17.1039 190.39 15.7734 191.66 14.9203C192.93 14.057 194.834 13.5797 197.373 13.4883L200.328 13.3969V12.6504C200.328 11.7566 200.095 11.1016 199.628 10.6852C199.16 10.2687 198.51 10.0605 197.678 10.0605C196.855 10.0605 196.048 10.1773 195.255 10.4109C194.463 10.6445 193.671 10.9391 192.879 11.2945L191.34 8.15625C192.244 7.67891 193.255 7.30312 194.372 7.02891C195.499 6.75469 196.662 6.61758 197.86 6.61758ZM200.328 16.1086L198.531 16.1695C197.028 16.2102 195.982 16.4793 195.392 16.977C194.814 17.4746 194.524 18.1297 194.524 18.9422C194.524 19.6531 194.732 20.1609 195.149 20.4656C195.565 20.7602 196.108 20.9074 196.779 20.9074C197.774 20.9074 198.612 20.6129 199.292 20.0238C199.983 19.4348 200.328 18.5969 200.328 17.5102V16.1086ZM230.058 6.64805C231.988 6.64805 233.445 7.1457 234.43 8.14102C235.426 9.12617 235.923 10.7105 235.923 12.8941V24H231.261V14.052C231.261 12.8332 231.053 11.9141 230.637 11.2945C230.22 10.675 229.576 10.3652 228.702 10.3652C227.473 10.3652 226.6 10.807 226.082 11.6906C225.564 12.5641 225.305 13.8184 225.305 15.4535V24H220.658V14.052C220.658 13.2395 220.567 12.559 220.384 12.0105C220.201 11.4621 219.922 11.0508 219.546 10.7766C219.17 10.5023 218.688 10.3652 218.099 10.3652C217.236 10.3652 216.555 10.5836 216.058 11.0203C215.57 11.4469 215.22 12.0816 215.006 12.9246C214.803 13.7574 214.702 14.7781 214.702 15.9867V24H210.055V6.96797H213.605L214.229 9.14648H214.488C214.834 8.55742 215.265 8.08008 215.783 7.71445C216.311 7.34883 216.89 7.07969 217.52 6.90703C218.15 6.73437 218.79 6.64805 219.44 6.64805C220.689 6.64805 221.745 6.85117 222.608 7.25742C223.482 7.66367 224.152 8.29336 224.619 9.14648H225.031C225.538 8.27305 226.254 7.63828 227.179 7.24219C228.113 6.84609 229.073 6.64805 230.058 6.64805Z" fill="#FF8F73"/>
</svg>
